<svg xmlns="http://www.w3.org/2000/svg" viewBox="0 0 845.07 208.74"><defs><style>.cls-1{fill:#fff;}</style></defs><title>Fichier 2</title><g id="Calque_2" data-name="Calque 2"><g id="Logo_blanc" data-name="Logo blanc"><path class="cls-1" d="M121,74.69Q106,61.06,82.47,61.06a60.39,60.39,0,0,0-28.4,6.53,46.21,46.21,0,0,0-19.6,19.88L33.05,63.9h-27v97.8a21.45,21.45,0,0,1,30.39-.47V130.64q0-22.72,11.36-33.65A37.92,37.92,0,0,1,75.08,86.05q30.39,0,30.39,37.49V205.9h30.39v-92Q135.86,88.32,121,74.69Z"/><circle class="cls-1" cx="21.5" cy="184.65" r="21.5"/><path class="cls-1" d="M305.9,113.22A43.8,43.8,0,0,1,313.62,98q10.51-13.07,29.82-13.06t29.68,12.92q10.37,12.92,10.37,37.06T373.12,172q-10.36,12.92-29.68,12.92t-29.82-13.06a43.84,43.84,0,0,1-7.72-15.25q-4,18.7-15.51,31.38c.36.4.71.8,1.08,1.19q18.74,19.6,52,19.6t52-19.6q18.74-19.6,18.74-54.24T395.42,80.66q-18.74-19.6-52-19.6t-52,19.6c-.37.39-.72.79-1.08,1.19Q301.9,94.53,305.9,113.22Z"/><path class="cls-1" d="M176.37,189.14q-18.74-19.6-18.74-54.24t18.74-54.24q18.74-19.6,52-19.6t52,19.6q18.74,19.6,18.74,54.24t-18.74,54.24q-18.74,19.6-52,19.6T176.37,189.14ZM258,172Q268.39,159,268.39,134.9T258,97.84q-10.36-12.93-29.68-12.92T198.52,98Q188,111,188,134.9t10.51,36.92q10.51,13.06,29.82,13.06T258,172Z"/><path class="cls-1" d="M495.57,139.16l-28.12,29V205.9H437.07V0h30.39V133.48L535.33,63.9h35.78l-54.24,55.66,57.65,86.34H539.3Z"/><path class="cls-1" d="M624.17,164.44q0,10.51,3.12,14.63t11.64,4.12a51.4,51.4,0,0,0,9.23-.71,52,52,0,0,0,9.51-3l-3.41,24.42q-9.66,4.83-23.57,4.83-19,0-28-9.66t-8.95-30.39V0h30.39Z"/><path class="cls-1" d="M709.63,205.9H679.24V63.9h30.39Z"/><path class="cls-1" d="M845.07,196.53a50.57,50.57,0,0,1-16.61,8.95,66.6,66.6,0,0,1-21.16,3.27q-19.6,0-31.38-9.8t-12.07-30.53V87.76h-27V63.9h27V30.67l30.39-8.52V63.9h49.7V87.76h-49.7V163.3q0,10.22,5.54,15.19t15.19,5a33.06,33.06,0,0,0,23-9.09Z"/><circle class="cls-1" cx="694.5" cy="21.65" r="21.5"/></g></g></svg>