<?xml version="1.0" encoding="utf-8"?>
<!-- Generator: Adobe Illustrator 21.0.0, SVG Export Plug-In . SVG Version: 6.00 Build 0)  -->
<svg version="1.1" id="Calque_1" xmlns="http://www.w3.org/2000/svg" xmlns:xlink="http://www.w3.org/1999/xlink" x="0px" y="0px"
	 viewBox="0 0 500 500" style="enable-background:new 0 0 500 500;" xml:space="preserve">
<style type="text/css">
	.st0{fill:#105D87;}
	.st1{fill:#DD314E;}
</style>
<title>Fichier 2</title>
<g id="Calque_2">
	<g id="Logos_minis">
		<path class="st0" d="M427.5,52.8C394.2,22.3,351.3,7.1,298.7,7.1c-35.5,0-67.2,7.3-95.1,21.9S153.8,65.7,138,95.4l-4.8-78.8H42.9
			V344c27.6-28.5,73.1-29.3,101.6-1.7c0.1,0.1,0.1,0.1,0.2,0.2V240.1c0-50.7,12.7-88.3,38-112.7c24.3-24,57.2-37.2,91.3-36.6
			c67.8,0,101.7,41.8,101.8,125.5v275.8h101.8V184C477.5,126.9,460.8,83.2,427.5,52.8z"/>
		<circle class="st1" cx="94.5" cy="420.9" r="72"/>
	</g>
</g>
</svg>
