<svg xmlns="http://www.w3.org/2000/svg" viewBox="0 0 1088.93 268.98"><defs><style>.cls-1{fill:#105d87;}.cls-2{fill:#dd314e;}</style></defs><title>Fichier 1</title><g id="Calque_2" data-name="Calque 2"><g id="Logo_couleur" data-name="Logo couleur"><path class="cls-1" d="M155.85,96.25q-19.21-17.57-49.59-17.57-20.5,0-36.6,8.42T44.42,112.71L42.59,82.34H7.82v126a27.65,27.65,0,0,1,39.16-.6V168.34Q47,139.06,61.62,125a48.87,48.87,0,0,1,35.13-14.09q39.15,0,39.16,48.31V265.32h39.16V146.75Q175.06,113.81,155.85,96.25Z"/><circle class="cls-2" cx="27.7" cy="237.93" r="27.7"/><path class="cls-1" d="M394.18,145.9a56.44,56.44,0,0,1,9.95-19.64q13.54-16.84,38.43-16.83t38.24,16.65q13.36,16.65,13.36,47.76t-13.36,47.76q-13.35,16.65-38.24,16.65T404.13,221.4a56.49,56.49,0,0,1-9.95-19.65q-5.16,24.1-20,40.43c.46.51.91,1,1.39,1.54q24.15,25.25,67,25.25t67-25.25q24.15-25.25,24.15-69.9t-24.15-69.9q-24.15-25.25-67-25.25t-67,25.25c-.48.5-.93,1-1.39,1.54Q389,121.8,394.18,145.9Z"/><path class="cls-1" d="M227.27,243.72q-24.15-25.25-24.15-69.9t24.15-69.9q24.15-25.25,67-25.25t67,25.25q24.15,25.25,24.15,69.9t-24.15,69.9Q337.05,269,294.24,269T227.27,243.72Zm105.21-22.14q13.36-16.66,13.36-47.76t-13.36-47.76q-13.35-16.66-38.24-16.65t-38.43,16.83q-13.53,16.83-13.54,47.57t13.54,47.57q13.55,16.83,38.43,16.83T332.48,221.58Z"/><path class="cls-1" d="M638.57,179.32l-36.23,37.33v48.67H563.19V0h39.16V172l87.46-89.66h46.11L666,154.07l74.29,111.25H694.93Z"/><path class="cls-1" d="M804.29,211.89q0,13.54,4,18.85t15,5.31a66.23,66.23,0,0,0,11.89-.91,67,67,0,0,0,12.26-3.84l-4.39,31.47Q830.63,269,812.7,269q-24.52,0-36-12.44t-11.53-39.16V0h39.16Z"/><path class="cls-1" d="M914.41,265.32H875.25v-183h39.16Z"/><path class="cls-1" d="M1088.93,253.24a65.16,65.16,0,0,1-21.41,11.53,85.82,85.82,0,0,1-27.26,4.21q-25.25,0-40.44-12.63T984.27,217V113.08H949.5V82.34h34.77V39.52l39.16-11v53.8h64v30.74h-64v97.34q0,13.17,7.14,19.58t19.58,6.4a42.6,42.6,0,0,0,29.64-11.71Z"/><circle class="cls-2" cx="894.91" cy="27.9" r="27.7"/></g></g></svg>